# File created by Blade
# Date/Time:  Wed Jan 21 15:23:43 2015
# Frame Rate: 120.000 fps
#------------------------------------------------------
:FULLY-SPECIFIED
:DEGREES
277
root 25.439861 32.190565 -19.400363 -171.293851 0.867603 -178.034078
Spine 0.887508 2.164971 0.014102
Head -4.224090 -3.100362 0.571381
LeftShoulder -7.468508 -22.263995 -0.127768
LeftArm -22.485308 28.123327 -85.307252
LeftForeArm 14.663944 0.000000 28.200414
LeftHand -1.036229 -0.000000 -9.859603
LeftHandThumb1 -26.253704 0.000000 33.147579
RightShoulder -5.402807 -11.682396 6.224584
RightArm 17.354288 -20.392964 62.990213
RightForeArm -37.872930 -0.000000 31.111753
RightHand 1.140568 -0.000000 6.710080
RightHandThumb1 -24.326973 -0.000000 -32.862282
LeftUpLeg -2.448793 20.165005 23.452557
LeftLeg -6.469470 -0.000000 0.000000
LeftFoot -13.136255 18.406108 -17.064494
LeftToeBase 33.928394 -0.000000 -0.000000
RightUpLeg -37.299749 -35.100979 -0.602408
RightLeg 46.773729 -0.000000 -0.000000
RightFoot -31.514940 -20.882936 18.940043
RightToeBase 22.363272 -0.000000 -0.000000
278
root 25.569130 32.129667 -19.419684 -171.307567 0.795912 -177.886928
Spine 0.820393 2.149906 0.067619
Head -4.115551 -3.070116 0.576847
LeftShoulder -7.579315 -22.170952 -0.078324
LeftArm -22.601386 28.030129 -85.323864
LeftForeArm 15.216384 -0.000000 28.582764
LeftHand -1.158874 -0.000000 -9.737011
LeftHandThumb1 -26.253704 0.000000 33.147579
RightShoulder -5.369608 -11.696416 6.227114
RightArm 17.454786 -20.497610 62.891884
RightForeArm -37.910331 -0.000000 31.144493
RightHand 1.140990 -0.000000 6.650360
RightHandThumb1 -24.326973 -0.000000 -32.862282
LeftUpLeg -2.401865 20.281702 23.848903
LeftLeg -6.494105 -0.000000 0.000000
LeftFoot -13.095852 18.271861 -17.032104
LeftToeBase 34.067629 -0.000000 -0.000000
RightUpLeg -37.539480 -35.147259 -0.295393
RightLeg 47.356789 -0.000000 -0.000000
RightFoot -31.868793 -20.883793 19.094352
RightToeBase 23.375539 -0.000000 -0.000000
279
root 25.702744 32.066462 -19.440412 -171.347219 0.715200 -177.790019
Spine 0.789769 2.122686 0.037401
Head -4.038514 -3.021284 0.634162
LeftShoulder -7.604419 -22.091969 -0.035320
LeftArm -22.804106 27.838287 -85.280779
LeftForeArm 15.687370 0.000000 29.149974
LeftHand -1.320222 0.000000 -9.509770
LeftHandThumb1 -26.253704 0.000000 33.147579
RightShoulder -5.345390 -11.724729 6.281849
RightArm 17.563486 -20.529940 62.789737
RightForeArm -37.934417 -0.000000 31.188973
RightHand 1.268871 0.000000 6.918503
RightHandThumb1 -24.326973 -0.000000 -32.862282
LeftUpLeg -2.333986 20.394278 24.203252
LeftLeg -6.531936 -0.000000 0.000000
LeftFoot -13.026370 18.129524 -17.068876
LeftToeBase 34.165148 -0.000000 -0.000000
RightUpLeg -37.741860 -35.198759 -0.053355
RightLeg 47.943709 -0.000000 -0.000000
RightFoot -32.252545 -20.894628 19.228032
RightToeBase 23.322210 -0.000000 -0.000000
280
root 25.835934 32.002783 -19.457194 -171.362205 0.637275 -177.680645
Spine 0.739704 2.123609 0.041197
Head -3.965043 -3.028483 0.652999
LeftShoulder -7.633245 -22.067671 -0.001828
LeftArm -23.012615 27.565793 -85.201540
LeftForeArm 16.037939 -0.000000 29.723880
LeftHand -1.386160 -0.000000 -9.288278
LeftHandThumb1 -26.253704 0.000000 33.147579
RightShoulder -5.339279 -11.704341 6.304357
RightArm 17.599703 -20.599000 62.727801
RightForeArm -38.016961 -0.000000 31.291689
RightHand 1.201035 -0.000000 6.849533
RightHandThumb1 -24.326973 -0.000000 -32.862282
LeftUpLeg -2.317317 20.529314 24.558137
LeftLeg -6.530223 -0.000000 0.000000
LeftFoot -12.972317 17.984912 -17.076072
LeftToeBase 34.262050 -0.000000 -0.000000
RightUpLeg -37.979010 -35.214306 0.215306
RightLeg 48.514507 -0.000000 -0.000000
RightFoot -32.647719 -21.014574 19.322028
RightToeBase 23.920489 -0.000000 -0.000000
281
root 25.974895 31.938231 -19.477000 -171.415147 0.522989 -177.548343
Spine 0.754145 2.060133 0.065593
Head -3.914379 -2.971993 0.700113
LeftShoulder -7.741664 -22.027873 0.047282
LeftArm -23.132114 27.378675 -85.108911
LeftForeArm 16.312431 0.000000 30.260850
LeftHand -1.720768 -0.000000 -9.395033
LeftHandThumb1 -26.253704 0.000000 33.147579
RightShoulder -5.330132 -11.689015 6.375009
RightArm 17.695063 -20.658478 62.583283
RightForeArm -37.880365 -0.000000 31.370717
RightHand 1.403615 -0.000000 7.102286
RightHandThumb1 -24.326973 -0.000000 -32.862282
LeftUpLeg -2.263595 20.600283 24.963059
LeftLeg -6.550383 -0.000000 0.000000
LeftFoot -12.909567 17.878004 -17.087497
LeftToeBase 34.448943 -0.000000 -0.000000
RightUpLeg -38.169572 -35.289896 0.503298
RightLeg 49.109576 -0.000000 -0.000000
RightFoot -33.084425 -21.061562 19.416202
RightToeBase 24.143026 -0.000000 -0.000000
282
root 26.115948 31.871591 -19.497337 -171.473843 0.462878 -177.442437
Spine 0.766234 2.110129 0.034961
Head -3.866461 -2.967224 0.770788
LeftShoulder -7.739889 -21.983289 0.079597
LeftArm -23.281376 27.138038 -84.984639
LeftForeArm 16.482868 -0.000000 30.844527
LeftHand -1.867388 0.000000 -9.314412
LeftHandThumb1 -26.253704 0.000000 33.147579
RightShoulder -5.395833 -11.691717 6.466150
RightArm 17.812969 -20.715749 62.466568
RightForeArm -37.946325 -0.000000 31.449823
RightHand 1.405451 -0.000000 7.083856
RightHandThumb1 -24.326973 -0.000000 -32.862282
LeftUpLeg -2.166909 20.703995 25.352110
LeftLeg -6.584475 -0.000000 0.000000
LeftFoot -12.837134 17.745588 -17.172955
LeftToeBase 34.557119 -0.000000 -0.000000
RightUpLeg -38.380670 -35.306725 0.759669
RightLeg 49.744545 -0.000000 -0.000000
RightFoot -33.597976 -21.025067 19.662662
RightToeBase 24.745617 -0.000000 -0.000000
283
root 26.258960 31.803412 -19.516935 -171.508571 0.413778 -177.348041
Spine 0.745755 2.127794 -0.015099
Head -3.765176 -2.999256 0.823000
LeftShoulder -7.778667 -21.909523 0.154002
LeftArm -23.394756 26.822779 -84.834588
LeftForeArm 16.704931 -0.000000 31.443417
LeftHand -1.965387 -0.000000 -9.215108
LeftHandThumb1 -26.253704 0.000000 33.147579
RightShoulder -5.372708 -11.684877 6.552129
RightArm 17.843479 -20.746793 62.374340
RightForeArm -38.006212 -0.000000 31.563377
RightHand 1.521617 -0.000000 7.239280
RightHandThumb1 -24.326973 -0.000000 -32.862282
LeftUpLeg -2.112300 20.898795 25.718638
LeftLeg -6.579561 -0.000000 0.000000
LeftFoot -12.748773 17.541635 -17.235853
LeftToeBase 34.592741 -0.000000 -0.000000
RightUpLeg -38.608705 -35.285960 1.020586
RightLeg 50.379032 -0.000000 -0.000000
RightFoot -34.088761 -20.986215 19.781326
RightToeBase 24.790021 -0.000000 -0.000000
284
root 26.405582 31.733954 -19.535543 -171.586745 0.366678 -177.192843
Spine 0.804122 2.184328 0.014542
Head -3.707218 -2.944118 0.908082
LeftShoulder -7.810159 -21.887679 0.199153
LeftArm -23.471318 26.551956 -84.693358
LeftForeArm 16.969853 -0.000000 31.934116
LeftHand -2.120540 0.000000 -9.467109
LeftHandThumb1 -26.253704 0.000000 33.147579
RightShoulder -5.377872 -11.615273 6.606500
RightArm 17.840915 -20.818853 62.295277
RightForeArm -38.092563 -0.000000 31.711038
RightHand 1.445132 -0.000000 7.107673
RightHandThumb1 -24.326973 -0.000000 -32.862282
LeftUpLeg -2.011531 21.060444 26.182332
LeftLeg -6.563395 -0.000000 0.000000
LeftFoot -12.685374 17.335182 -17.269297
LeftToeBase 34.791122 -0.000000 -0.000000
RightUpLeg -38.773663 -35.233637 1.315316
RightLeg 51.000629 -0.000000 -0.000000
RightFoot -34.567621 -20.927977 19.917078
RightToeBase 24.763820 -0.000000 -0.000000
285
root 26.556580 31.665360 -19.549820 -171.626147 0.302694 -177.019474
Spine 0.835210 2.205367 0.067785
Head -3.705634 -2.894842 0.956028
LeftShoulder -7.886530 -21.895899 0.277165
LeftArm -23.563950 26.404107 -84.599300
LeftForeArm 17.032988 -0.000000 32.395004
LeftHand -2.169940 -0.000000 -9.469078
LeftHandThumb1 -26.253704 0.000000 33.147579
RightShoulder -5.391948 -11.620918 6.683132
RightArm 17.955265 -20.850188 62.165350
RightForeArm -38.067756 -0.000000 31.813898
RightHand 1.524042 -0.000000 7.281267
RightHandThumb1 -24.326973 -0.000000 -32.862282
LeftUpLeg -1.988125 21.256645 26.650241
LeftLeg -6.505632 -0.000000 0.000000
LeftFoot -12.621650 17.093036 -17.355435
LeftToeBase 34.927712 -0.000000 -0.000000
RightUpLeg -38.978738 -35.128905 1.652581
RightLeg 51.615486 -0.000000 -0.000000
RightFoot -34.999755 -20.921338 20.193242
RightToeBase 24.275878 -0.000000 -0.000000
286
root 26.709254 31.596395 -19.562911 -171.632727 0.286709 -176.826657
Spine 0.818236 2.250604 0.135080
Head -3.642178 -2.867275 0.997833
LeftShoulder -7.930275 -21.890029 0.318681
LeftArm -23.687781 26.202608 -84.499075
LeftForeArm 17.266443 -0.000000 32.826363
LeftHand -2.233706 0.000000 -9.576836
LeftHandThumb1 -26.253704 0.000000 33.147579
RightShoulder -5.343226 -11.591634 6.744385
RightArm 17.960815 -20.889796 62.055107
RightForeArm -38.133005 -0.000000 31.973995
RightHand 1.528815 -0.000000 7.324186
RightHandThumb1 -24.326973 -0.000000 -32.862282
LeftUpLeg -1.974974 21.507345 27.135579
LeftLeg -6.430702 -0.000000 0.000000
LeftFoot -12.571446 16.849704 -17.433640
LeftToeBase 35.027902 -0.000000 -0.000000
RightUpLeg -39.200410 -34.940854 2.018585
RightLeg 52.186381 -0.000000 -0.000000
RightFoot -35.533036 -20.914544 20.380207
RightToeBase 24.447526 -0.000000 -0.000000
287
root 26.863372 31.523567 -19.576460 -171.705488 0.261871 -176.614107
Spine 0.902383 2.345710 0.233703
Head -3.636848 -2.918131 1.047632
LeftShoulder -7.916438 -21.935322 0.382999
LeftArm -23.818612 26.090478 -84.477611
LeftForeArm 17.331315 -0.000000 33.212236
LeftHand -2.250643 0.000000 -9.497870
LeftHandThumb1 -26.253704 0.000000 33.147579
RightShoulder -5.376376 -11.612441 6.809434
RightArm 18.096448 -20.930555 61.902523
RightForeArm -38.167737 0.000000 32.086411
RightHand 1.447378 -0.000000 7.199729
RightHandThumb1 -24.326973 -0.000000 -32.862282
LeftUpLeg -1.893087 21.683918 27.677514
LeftLeg -6.362983 -0.000000 0.000000
LeftFoot -12.525219 16.617762 -17.471963
LeftToeBase 35.144913 -0.000000 -0.000000
RightUpLeg -39.341032 -34.762708 2.356959
RightLeg 52.777070 -0.000000 -0.000000
RightFoot -36.063204 -20.996142 20.473268
RightToeBase 25.254325 -0.000000 -0.000000
288
root 27.020017 31.450838 -19.588752 -171.708194 0.224496 -176.402306
Spine 0.883200 2.390150 0.329099
Head -3.543802 -2.881828 1.091168
LeftShoulder -7.960027 -21.905760 0.442412
LeftArm -23.869177 25.983482 -84.419322
LeftForeArm 17.665762 0.000000 33.541071
LeftHand -2.383507 0.000000 -9.758454
LeftHandThumb1 -26.253704 0.000000 33.147579
RightShoulder -5.337725 -11.620822 6.855548
RightArm 18.101228 -20.885750 61.836083
RightForeArm -38.286808 -0.000000 32.271995
RightHand 1.380411 -0.000000 7.273536
RightHandThumb1 -24.326973 -0.000000 -32.862282
LeftUpLeg -1.914973 21.934256 28.188565
LeftLeg -6.256811 -0.000000 0.000000
LeftFoot -12.472894 16.365970 -17.533949
LeftToeBase 35.188215 -0.000000 -0.000000
RightUpLeg -39.570681 -34.601117 2.761732
RightLeg 53.359150 -0.000000 -0.000000
RightFoot -36.547888 -21.011956 20.603947
RightToeBase 25.186497 -0.000000 -0.000000
